<svg xmlns="http://www.w3.org/2000/svg" viewBox="0 0 481.02 465"><defs><style>.cls-1,.cls-2{fill:#fff;}.cls-1{stroke:#fff;stroke-miterlimit:10;}</style></defs><title>Asset 1</title><g id="Layer_2" data-name="Layer 2"><g id="Outline"><path class="cls-1" d="M456.52,401.5v-1a32,32,0,0,0-32-32v-148l28.8-21.6a8,8,0,0,0,1.6-11.2,9.12,9.12,0,0,0-1.7-1.7l-68.7-50.2V48.5a8,8,0,0,0,8-8V8.5a8,8,0,0,0-8-8h-80a8,8,0,0,0-8,8v32a8,8,0,0,0,8,8V77.4l-59.3-43.3a7.8,7.8,0,0,0-9.4,0l-208,152a8,8,0,0,0-1.7,11.2,9.12,9.12,0,0,0,1.7,1.7l28.7,21.5v148a32,32,0,0,0-32,32v1a32,32,0,0,0,8,63h416a32,32,0,0,0,8-63Zm-144-385h64v16h-64Zm8,72v-40h48v75.6l-48.8-35.6Zm-80-38.1,194.6,142.2-18.6,14L245.22,82a8.11,8.11,0,0,0-9.4,0L64.62,206.6,46,192.6Zm-224,382.1a16,16,0,0,1,15.8-16h0a4.87,4.87,0,0,0,1.2.1,8,8,0,0,0,8.5-7.5,7,7,0,0,0-.5-3.2,14.36,14.36,0,0,1-1-5.4,16,16,0,0,1,16-16v64h-24A16,16,0,0,1,16.52,432.5Zm344,16h-96v-176h96Zm16,0v-184a8,8,0,0,0-8-8h-112a8,8,0,0,0-8,8v184h-176V220.6l168-122.2,168,122.2V448.5Zm72,0h-24v-64a15.86,15.86,0,0,1,15,21.4,8,8,0,0,0,4.8,10.3,8.59,8.59,0,0,0,3.2.5c.4,0,.8-.1,1.2-.1h0a16.11,16.11,0,0,1,15.9,16.1,15.9,15.9,0,0,1-16.1,15.8Z"/><path class="cls-2" d="M208.52,256.5h-96a8,8,0,0,0-8,8v112a8,8,0,0,0,8,8h96a8,8,0,0,0,8-8v-112A8,8,0,0,0,208.52,256.5Zm-8,56h-32v-40h32Zm-48-40v40h-32v-40Zm-32,56h32v40h-32Zm48,40v-40h32v40Z"/><circle class="cls-2" cx="288.52" cy="352.5" r="8"/></g></g></svg>