<svg xmlns="http://www.w3.org/2000/svg" viewBox="0 0 484.3 425.6"><defs><style>.cls-1{fill:#fff;}</style></defs><title>Asset 2</title><g id="Layer_2" data-name="Layer 2"><g id="line_Icons" data-name="line Icons"><path class="cls-1" d="M345,425.6a6.91,6.91,0,0,1-6.9-6.9V51.1L250.4,14.3l-73.6,29V418.7a6.9,6.9,0,0,1-13.8,0V38.6a6.81,6.81,0,0,1,4.4-6.4L248,.5a6.7,6.7,0,0,1,5.2.1l94.5,39.7a6.87,6.87,0,0,1,4.2,6.4V418.8a6.89,6.89,0,0,1-6.9,6.8Z"/><path class="cls-1" d="M250.4,425.6a6.91,6.91,0,0,1-6.9-6.9V6.9a6.9,6.9,0,0,1,13.8,0V418.7A6.79,6.79,0,0,1,250.4,425.6Z"/><path class="cls-1" d="M456.7,425.6a6.91,6.91,0,0,1-6.9-6.9V201.2l-67.7-39.4H345a6.9,6.9,0,1,1,0-13.8h39a7.3,7.3,0,0,1,3.5.9l72.7,42.3a7,7,0,0,1,3.5,6V418.6a7.15,7.15,0,0,1-7,7Z"/><path class="cls-1" d="M384,425.6a6.91,6.91,0,0,1-6.9-6.9V154.9a6.9,6.9,0,1,1,13.8,0V418.6A6.94,6.94,0,0,1,384,425.6Z"/><path class="cls-1" d="M27.7,425.6a6.91,6.91,0,0,1-6.9-6.9V203.2a6.91,6.91,0,0,1,6.9-6.9H169.8a6.9,6.9,0,1,1,0,13.8H34.6V418.7A6.91,6.91,0,0,1,27.7,425.6Z"/><path class="cls-1" d="M65.8,236.7H51.1a6.9,6.9,0,0,1,0-13.8H65.8a6.9,6.9,0,1,1,0,13.8Z"/><path class="cls-1" d="M106.1,236.7H91.4a6.9,6.9,0,0,1,0-13.8h14.7a6.9,6.9,0,1,1,0,13.8Z"/><path class="cls-1" d="M146.4,236.7H131.7a6.9,6.9,0,1,1,0-13.8h14.7a6.9,6.9,0,1,1,0,13.8Z"/><path class="cls-1" d="M65.8,269.1H51.1a6.9,6.9,0,1,1,0-13.8H65.8a6.9,6.9,0,1,1,0,13.8Z"/><path class="cls-1" d="M106.1,269.1H91.4a6.9,6.9,0,0,1,0-13.8h14.7a6.9,6.9,0,1,1,0,13.8Z"/><path class="cls-1" d="M146.4,269.1H131.7a6.9,6.9,0,1,1,0-13.8h14.7a6.9,6.9,0,1,1,0,13.8Z"/><path class="cls-1" d="M65.8,301.6H51.1a6.9,6.9,0,1,1,0-13.8H65.8a6.9,6.9,0,1,1,0,13.8Z"/><path class="cls-1" d="M106.1,301.6H91.4a6.9,6.9,0,0,1,0-13.8h14.7a6.9,6.9,0,1,1,0,13.8Z"/><path class="cls-1" d="M146.4,301.6H131.7a6.9,6.9,0,1,1,0-13.8h14.7a6.9,6.9,0,1,1,0,13.8Z"/><path class="cls-1" d="M65.8,334.1H51.1a6.9,6.9,0,1,1,0-13.8H65.8a6.9,6.9,0,1,1,0,13.8Z"/><path class="cls-1" d="M106.1,334.1H91.4a6.9,6.9,0,0,1,0-13.8h14.7a6.9,6.9,0,1,1,0,13.8Z"/><path class="cls-1" d="M146.4,334.1H131.7a6.9,6.9,0,1,1,0-13.8h14.7a6.9,6.9,0,1,1,0,13.8Z"/><path class="cls-1" d="M65.8,366.5H51.1a6.9,6.9,0,1,1,0-13.8H65.8a6.9,6.9,0,0,1,0,13.8Z"/><path class="cls-1" d="M106.1,366.5H91.4a6.9,6.9,0,0,1,0-13.8h14.7a6.9,6.9,0,0,1,0,13.8Z"/><path class="cls-1" d="M146.4,366.5H131.7a6.9,6.9,0,1,1,0-13.8h14.7a6.9,6.9,0,0,1,0,13.8Z"/><path class="cls-1" d="M65.8,399H51.1a6.9,6.9,0,1,1,0-13.8H65.8a6.9,6.9,0,0,1,0,13.8Z"/><path class="cls-1" d="M106.1,399H91.4a6.9,6.9,0,0,1,0-13.8h14.7a6.9,6.9,0,0,1,0,13.8Z"/><path class="cls-1" d="M146.4,399H131.7a6.9,6.9,0,1,1,0-13.8h14.7a6.9,6.9,0,0,1,0,13.8Z"/><path class="cls-1" d="M226.1,74.6a6.91,6.91,0,0,1-6.9-6.9V54.6a6.9,6.9,0,0,1,13.8,0V67.7A6.91,6.91,0,0,1,226.1,74.6Z"/><path class="cls-1" d="M194.5,82.6a6.91,6.91,0,0,1-6.9-6.9v-13a6.9,6.9,0,1,1,13.8,0V75.8A6.89,6.89,0,0,1,194.5,82.6Z"/><path class="cls-1" d="M226.1,126.6a6.91,6.91,0,0,1-6.9-6.9V106.6a6.9,6.9,0,0,1,13.8,0v13.1A6.91,6.91,0,0,1,226.1,126.6Z"/><path class="cls-1" d="M194.5,134.7a6.91,6.91,0,0,1-6.9-6.9V114.7a6.9,6.9,0,1,1,13.8,0v13.1A6.91,6.91,0,0,1,194.5,134.7Z"/><path class="cls-1" d="M226.1,178.7a6.91,6.91,0,0,1-6.9-6.9V158.7a6.9,6.9,0,0,1,13.8,0v13.1A6.91,6.91,0,0,1,226.1,178.7Z"/><path class="cls-1" d="M194.5,186.7a6.91,6.91,0,0,1-6.9-6.9V166.7a6.9,6.9,0,0,1,13.8,0v13.1A6.91,6.91,0,0,1,194.5,186.7Z"/><path class="cls-1" d="M226.1,230.7a6.91,6.91,0,0,1-6.9-6.9V210.7a6.9,6.9,0,0,1,13.8,0v13.1A6.91,6.91,0,0,1,226.1,230.7Z"/><path class="cls-1" d="M194.5,238.8a6.91,6.91,0,0,1-6.9-6.9V218.8a6.9,6.9,0,0,1,13.8,0v13.1A6.91,6.91,0,0,1,194.5,238.8Z"/><path class="cls-1" d="M226.1,282.8a6.91,6.91,0,0,1-6.9-6.9V262.8a6.9,6.9,0,0,1,13.8,0v13.1A6.91,6.91,0,0,1,226.1,282.8Z"/><path class="cls-1" d="M194.5,290.8a6.91,6.91,0,0,1-6.9-6.9v-13a6.9,6.9,0,0,1,13.8,0v13A6.91,6.91,0,0,1,194.5,290.8Z"/><path class="cls-1" d="M226.1,334.8a6.91,6.91,0,0,1-6.9-6.9V314.8a6.9,6.9,0,0,1,13.8,0v13.1A6.91,6.91,0,0,1,226.1,334.8Z"/><path class="cls-1" d="M194.5,342.8a6.91,6.91,0,0,1-6.9-6.9V322.8a6.9,6.9,0,1,1,13.8,0v13.1A6.91,6.91,0,0,1,194.5,342.8Z"/><path class="cls-1" d="M226.1,386.8a6.91,6.91,0,0,1-6.9-6.9v-13a6.9,6.9,0,0,1,13.8,0V380A6.83,6.83,0,0,1,226.1,386.8Z"/><path class="cls-1" d="M194.5,394.9a6.91,6.91,0,0,1-6.9-6.9V374.9a6.9,6.9,0,0,1,13.8,0V388a6.91,6.91,0,0,1-6.9,6.9Z"/><path class="cls-1" d="M273.8,68a6.91,6.91,0,0,1-6.9-6.9v-13a6.9,6.9,0,1,1,13.8,0v13A6.91,6.91,0,0,1,273.8,68Z"/><path class="cls-1" d="M297.2,76.8a6.91,6.91,0,0,1-6.9-6.9v-13a6.9,6.9,0,0,1,13.8,0V70A6.89,6.89,0,0,1,297.2,76.8Z"/><path class="cls-1" d="M320.5,85.6a6.91,6.91,0,0,1-6.9-6.9v-13a6.9,6.9,0,1,1,13.8,0V78.8A6.89,6.89,0,0,1,320.5,85.6Z"/><path class="cls-1" d="M273.8,119.9a6.91,6.91,0,0,1-6.9-6.9V99.9a6.9,6.9,0,1,1,13.8,0V113A6.91,6.91,0,0,1,273.8,119.9Z"/><path class="cls-1" d="M297.2,128.7a6.91,6.91,0,0,1-6.9-6.9v-13a6.9,6.9,0,0,1,13.8,0v13A6.91,6.91,0,0,1,297.2,128.7Z"/><path class="cls-1" d="M320.5,137.5a6.91,6.91,0,0,1-6.9-6.9v-13a6.9,6.9,0,0,1,13.8,0v13.1A6.89,6.89,0,0,1,320.5,137.5Z"/><path class="cls-1" d="M273.8,171.7a6.91,6.91,0,0,1-6.9-6.9V151.7a6.9,6.9,0,0,1,13.8,0v13.1a6.91,6.91,0,0,1-6.9,6.9Z"/><path class="cls-1" d="M297.2,180.5a6.91,6.91,0,0,1-6.9-6.9V160.5a6.9,6.9,0,0,1,13.8,0v13.1A6.91,6.91,0,0,1,297.2,180.5Z"/><path class="cls-1" d="M320.5,189.3a6.91,6.91,0,0,1-6.9-6.9v-13a6.9,6.9,0,1,1,13.8,0v13.1A6.83,6.83,0,0,1,320.5,189.3Z"/><path class="cls-1" d="M273.8,223.6a6.91,6.91,0,0,1-6.9-6.9V203.6a6.9,6.9,0,1,1,13.8,0v13.1A6.91,6.91,0,0,1,273.8,223.6Z"/><path class="cls-1" d="M297.2,232.4a6.91,6.91,0,0,1-6.9-6.9V212.4a6.9,6.9,0,0,1,13.8,0v13.1A6.91,6.91,0,0,1,297.2,232.4Z"/><path class="cls-1" d="M320.5,241.2a6.91,6.91,0,0,1-6.9-6.9V221.2a6.9,6.9,0,0,1,13.8,0v13.1A6.91,6.91,0,0,1,320.5,241.2Z"/><path class="cls-1" d="M273.8,275.4a6.91,6.91,0,0,1-6.9-6.9v-13a6.9,6.9,0,1,1,13.8,0v13.1A6.83,6.83,0,0,1,273.8,275.4Z"/><path class="cls-1" d="M297.2,284.3a6.91,6.91,0,0,1-6.9-6.9V264.3a6.9,6.9,0,0,1,13.8,0v13.1A6.91,6.91,0,0,1,297.2,284.3Z"/><path class="cls-1" d="M320.5,293.1a6.91,6.91,0,0,1-6.9-6.9V273.1a6.9,6.9,0,1,1,13.8,0v13.1A6.91,6.91,0,0,1,320.5,293.1Z"/><path class="cls-1" d="M273.8,327.3a6.91,6.91,0,0,1-6.9-6.9V307.3a6.9,6.9,0,1,1,13.8,0v13.1A6.91,6.91,0,0,1,273.8,327.3Z"/><path class="cls-1" d="M297.2,336.1a6.91,6.91,0,0,1-6.9-6.9V316.1a6.9,6.9,0,0,1,13.8,0v13.1A6.91,6.91,0,0,1,297.2,336.1Z"/><path class="cls-1" d="M320.5,344.9a6.91,6.91,0,0,1-6.9-6.9V324.9a6.9,6.9,0,0,1,13.8,0V338A6.91,6.91,0,0,1,320.5,344.9Z"/><path class="cls-1" d="M273.8,379.2a6.91,6.91,0,0,1-6.9-6.9V359.2a6.9,6.9,0,0,1,13.8,0v13A6.94,6.94,0,0,1,273.8,379.2Z"/><path class="cls-1" d="M297.2,388a6.91,6.91,0,0,1-6.9-6.9V368a6.9,6.9,0,0,1,13.8,0v13.1A6.91,6.91,0,0,1,297.2,388Z"/><path class="cls-1" d="M320.5,396.8a6.91,6.91,0,0,1-6.9-6.9V376.8a6.9,6.9,0,1,1,13.8,0v13.1A6.91,6.91,0,0,1,320.5,396.8Z"/><path class="cls-1" d="M408,215a6.91,6.91,0,0,1-6.9-6.9v-7a6.9,6.9,0,1,1,13.8,0v7A6.91,6.91,0,0,1,408,215Z"/><path class="cls-1" d="M431.3,229.7a6.91,6.91,0,0,1-6.9-6.9v-7a6.9,6.9,0,1,1,13.8,0v7A6.79,6.79,0,0,1,431.3,229.7Z"/><path class="cls-1" d="M408,249.2a6.91,6.91,0,0,1-6.9-6.9v-7a6.9,6.9,0,0,1,13.8,0v7a6.91,6.91,0,0,1-6.9,6.9Z"/><path class="cls-1" d="M431.3,263.8a6.91,6.91,0,0,1-6.9-6.9v-7a6.9,6.9,0,1,1,13.8,0v7A6.85,6.85,0,0,1,431.3,263.8Z"/><path class="cls-1" d="M408,283.4a6.91,6.91,0,0,1-6.9-6.9v-7a6.9,6.9,0,0,1,13.8,0v7A6.91,6.91,0,0,1,408,283.4Z"/><path class="cls-1" d="M431.3,298a6.91,6.91,0,0,1-6.9-6.9v-7a6.9,6.9,0,1,1,13.8,0v7A6.79,6.79,0,0,1,431.3,298Z"/><path class="cls-1" d="M408,317.5a6.91,6.91,0,0,1-6.9-6.9v-7a6.9,6.9,0,1,1,13.8,0v7A6.91,6.91,0,0,1,408,317.5Z"/><path class="cls-1" d="M431.3,332.2a6.91,6.91,0,0,1-6.9-6.9v-7a6.9,6.9,0,1,1,13.8,0v7A6.79,6.79,0,0,1,431.3,332.2Z"/><path class="cls-1" d="M408,351.7a6.91,6.91,0,0,1-6.9-6.9v-7a6.9,6.9,0,1,1,13.8,0v7A6.91,6.91,0,0,1,408,351.7Z"/><path class="cls-1" d="M431.3,366.4a6.91,6.91,0,0,1-6.9-6.9v-7a6.9,6.9,0,0,1,13.8,0v7A6.79,6.79,0,0,1,431.3,366.4Z"/><path class="cls-1" d="M408,385.9a6.91,6.91,0,0,1-6.9-6.9v-7a6.9,6.9,0,0,1,13.8,0v7A6.91,6.91,0,0,1,408,385.9Z"/><path class="cls-1" d="M431.3,400.5a6.91,6.91,0,0,1-6.9-6.9v-7a6.9,6.9,0,1,1,13.8,0v7A6.79,6.79,0,0,1,431.3,400.5Z"/><path class="cls-1" d="M477.4,425.5H6.9a6.9,6.9,0,0,1,0-13.8H477.4a6.9,6.9,0,1,1,0,13.8Z"/></g></g></svg>