<?xml version="1.0" encoding="utf-8"?>
<!-- Generator: Adobe Illustrator 24.0.0, SVG Export Plug-In . SVG Version: 6.00 Build 0)  -->
<svg version="1.1" id="Capa_1" xmlns="http://www.w3.org/2000/svg" xmlns:xlink="http://www.w3.org/1999/xlink" x="0px" y="0px"
	 viewBox="0 0 480 480" style="enable-background:new 0 0 480 480;" xml:space="preserve">
<style type="text/css">
	.st0{fill:#FFFFFF;}
</style>
<g>
	<g>
		<path class="st0" d="M472,0H8C3.6,0,0,3.6,0,8v464c0,4.4,3.6,8,8,8h464c4.4,0,8-3.6,8-8V8C480,3.6,476.4,0,472,0z M16,16h120
			c0,24.1,0,94.9,0,96c0,72.6-44.7,116.8-120,119.7V16z M151.3,128H296v160H104v-68.7C132.2,197.1,149.4,163.8,151.3,128z M240,440
			v24H16V247.7c25.1-0.4,49.7-6.6,72-18.2l0,66.5c0,4.4,3.6,8,8,8h48v64c0,4.4,3.6,8,8,8h101.2c4.3,0,7.8,0,10.8,0v56h-16
			C243.6,432,240,435.6,240,440z M464,464H256v-16l122.2,0c6.8,0,13.8,0,13.8-8v-72c0-42,27.4-68.9,72-71.7V464z M464,280.3
			c-53.7,3-88,36.7-88,87.7v64c-18.4,0-64.4,0-96,0v-64c0-2.1-0.9-4.2-2.4-5.7c-1.6-1.4-3.6-2.3-5.7-2.3c-1.1,0-85.3,0-112,0v-56
			h144c4.4,0,8-3.6,8-8V128h152V280.3z M464,112H152v0h-0.8c0.8-6.9,0.8-21.2,0.8-52V16h312V112z"/>
	</g>
</g>
</svg>
