<svg xmlns="http://www.w3.org/2000/svg" viewBox="0 0 480 480"><defs><style>.cls-1{fill:#fff;}</style></defs><title>Asset 3</title><g id="Layer_2" data-name="Layer 2"><g id="Layer_1-2" data-name="Layer 1"><g id="Analysis_Report" data-name="Analysis Report"><path class="cls-1" d="M448,176a8,8,0,0,0-8-8H304V40a8,8,0,0,0-8-8,138.12,138.12,0,0,0-24,2.1V8a8,8,0,0,0-8-8H72a8.1,8.1,0,0,0-5.7,2.3l-64,64A8.1,8.1,0,0,0,0,72V472a8,8,0,0,0,8,8H264a8,8,0,0,0,8-8V333.9a160.9,160.9,0,0,0,24,2.1A152.19,152.19,0,0,0,448,184c0-2.2-.1-4.3-.2-6.5a7.72,7.72,0,0,0,.2-1.5ZM288,48.2V172.7L190.7,270A135.93,135.93,0,0,1,288,48.2ZM64,27.3V64H27.3ZM256,464H16V80H72a8,8,0,0,0,8-8V16H256V37.5a151.81,151.81,0,0,0,0,293Zm40-144a135.25,135.25,0,0,1-94.4-38.3L299.3,184H432A136.14,136.14,0,0,1,296,320Z"/><path class="cls-1" d="M328,152H472a7.94,7.94,0,0,0,7.8-8.1v-.3C475.3,63,408.7-.1,328,0a8,8,0,0,0-8,8V144A8,8,0,0,0,328,152Zm135.1-16H336V16.2A136,136,0,0,1,463.1,136Z"/><path class="cls-1" d="M136,304a72,72,0,1,0,72,72A72,72,0,0,0,136,304Zm0,128a56,56,0,1,1,56-56A56,56,0,0,1,136,432Z"/><path class="cls-1" d="M160,392a24.17,24.17,0,0,1-16,22.6V424H128v-9.4A24.07,24.07,0,0,1,112,392h16a8,8,0,1,0,8-8,24,24,0,0,1-8-46.6V328h16v9.4A24.07,24.07,0,0,1,160,360H144a8,8,0,1,0-8,8A24.07,24.07,0,0,1,160,392Z"/><path class="cls-1" d="M48,112h80v16H48Z"/><path class="cls-1" d="M48,160h80v16H48Z"/><path class="cls-1" d="M48,208h80v16H48Z"/><path class="cls-1" d="M48,256h80v16H48Z"/><path class="cls-1" d="M304,368h32v16H304Z"/><path class="cls-1" d="M352,368H480v16H352Z"/><path class="cls-1" d="M304,416h32v16H304Z"/><path class="cls-1" d="M352,416H480v16H352Z"/><path class="cls-1" d="M304,464h32v16H304Z"/><path class="cls-1" d="M352,464H480v16H352Z"/></g></g></g></svg>